<svg width="24" height="24" viewBox="0 0 24 24" fill="none" xmlns="http://www.w3.org/2000/svg">
<path fill-rule="evenodd" clip-rule="evenodd" d="M21 20H3C1.34315 20 0 18.6569 0 17V11C0 9.89543 0.89543 9 2 9H22V7C22 6.44772 21.5523 6 21 6H3C2.44772 6 2 6.44772 2 7C2 7.55228 1.55228 8 1 8C0.447715 8 0 7.55228 0 7C0 5.34315 1.34315 4 3 4H21C22.6569 4 24 5.34315 24 7V9C24 10.1046 23.1046 11 22 11H2V17C2 17.5523 2.44772 18 3 18H21C21.5523 18 22 17.5523 22 17V14C22 13.4477 22.4477 13 23 13C23.5523 13 24 13.4477 24 14V17C24 18.6569 22.6569 20 21 20Z" fill="#778CA2"/>
<path fill-rule="evenodd" clip-rule="evenodd" d="M20 14C20 13.4477 19.5523 13 19 13H15C14.4477 13 14 13.4477 14 14C14 14.5523 14.4477 15 15 15H19C19.5523 15 20 14.5523 20 14Z" fill="#778CA2"/>
</svg>
