<svg width="24" height="24" viewBox="0 0 24 24" fill="none" xmlns="http://www.w3.org/2000/svg">
<path fill-rule="evenodd" clip-rule="evenodd" d="M17.9966 22.563H15.9966C14.892 22.563 13.9966 21.6676 13.9966 20.563V13.563H9.99658V20.563C9.99658 21.6676 9.10115 22.563 7.99658 22.563H5.99658C4.33973 22.563 2.99658 21.2198 2.99658 19.563V12.563C2.99658 12.0107 3.4443 11.563 3.99658 11.563C4.54887 11.563 4.99658 12.0107 4.99658 12.563V19.563C4.99658 20.1153 5.4443 20.563 5.99658 20.563H7.99658V13.563C7.99658 12.4584 8.89201 11.563 9.99658 11.563H13.9966C15.1012 11.563 15.9966 12.4584 15.9966 13.563V20.563H17.9966C18.5489 20.563 18.9966 20.1153 18.9966 19.563V12.563C18.9966 12.0107 19.4443 11.563 19.9966 11.563C20.5489 11.563 20.9966 12.0107 20.9966 12.563V19.563C20.9966 21.2198 19.6534 22.563 17.9966 22.563Z" fill="#778CA2"/>
<path fill-rule="evenodd" clip-rule="evenodd" d="M23.8364 10.103C24.1357 9.64154 24.0062 9.02497 23.5464 8.72301L14.1764 2.64301C12.8532 1.78566 11.1497 1.78566 9.82643 2.64301L0.45643 8.72301C-0.00748956 9.02401 -0.139566 9.64409 0.16143 10.108C0.462425 10.5719 1.08251 10.704 1.54643 10.403L10.9164 4.32301C11.5792 3.89217 12.4336 3.89217 13.0964 4.32301L22.4664 10.403C22.9279 10.7023 23.5445 10.5728 23.8464 10.113L23.8364 10.103Z" fill="#778CA2"/>
</svg>
