<svg width="24" height="24" viewBox="0 0 24 24" fill="none" xmlns="http://www.w3.org/2000/svg">
<path fill-rule="evenodd" clip-rule="evenodd" d="M11.4846 23.9878C5.59062 23.9938 0.651078 19.5325 0.0587388 13.6684C-0.533601 7.80421 3.41401 2.44529 9.19013 1.27242C9.76614 1.15722 10.3265 1.53077 10.4417 2.10677C10.5569 2.68278 10.1833 3.24311 9.60731 3.35831C5.00457 4.2991 1.80619 8.49777 2.12168 13.1851C2.43717 17.8724 6.16936 21.6046 10.8567 21.9201C15.544 22.2355 19.7426 19.0372 20.6834 14.4344C20.7579 14.0618 21.0256 13.7573 21.3855 13.6355C21.7455 13.5137 22.1431 13.5932 22.4285 13.8441C22.7139 14.0949 22.8438 14.479 22.7693 14.8516C21.6585 20.1927 16.94 24.0129 11.4846 23.9878Z" fill="#778CA2"/>
<path fill-rule="evenodd" clip-rule="evenodd" d="M24 10.4295C24 4.66944 19.3306 0 13.5705 0C12.9945 0 12.5276 0.466944 12.5276 1.04295V10.4295C12.5276 11.0055 12.9945 11.4724 13.5705 11.4724C14.1465 11.4724 14.6135 11.0055 14.6135 10.4295V2.14847C18.3966 2.62392 21.3761 5.60343 21.8515 9.38654H17.7423C17.1663 9.38654 16.6994 9.85348 16.6994 10.4295C16.6994 11.0055 17.1663 11.4724 17.7423 11.4724H22.9571C23.5331 11.4724 24 11.0055 24 10.4295Z" fill="#778CA2"/>
</svg>
