<svg width="24" height="24" viewBox="0 0 24 24" fill="none" xmlns="http://www.w3.org/2000/svg">
<path fill-rule="evenodd" clip-rule="evenodd" d="M21 21H3C1.34315 21 0 19.6569 0 18V14C0 12.8954 0.89543 12 2 12H4C5.10457 12 6 12.8954 6 14V16C6 16.5523 5.55228 17 5 17C4.44772 17 4 16.5523 4 16V14H2V18C2 18.5523 2.44772 19 3 19H21C21.5523 19 22 18.5523 22 18V5H20V16C20 16.5523 19.5523 17 19 17C18.4477 17 18 16.5523 18 16V5C18 3.89543 18.8954 3 20 3H22C23.1046 3 24 3.89543 24 5V18C24 19.6569 22.6569 21 21 21Z" fill="#778CA2"/>
<path fill-rule="evenodd" clip-rule="evenodd" d="M15 16V11C15 9.89543 14.1046 9 13 9H11C9.89543 9 9 9.89543 9 11V16C9 16.5523 9.44772 17 10 17C10.5523 17 11 16.5523 11 16V11H13V16C13 16.5523 13.4477 17 14 17C14.5523 17 15 16.5523 15 16Z" fill="#778CA2"/>
</svg>
