<svg width="24" height="24" viewBox="0 0 24 24" fill="none" xmlns="http://www.w3.org/2000/svg">
<path fill-rule="evenodd" clip-rule="evenodd" d="M12.69 23.93H11.24C9.98859 23.9245 8.97548 22.9114 8.97 21.66C8.97446 21.5567 8.91483 21.4613 8.82 21.42C8.36758 21.268 7.92648 21.0842 7.5 20.87C7.40332 20.8293 7.2915 20.8532 7.22 20.93C6.33011 21.8175 4.88989 21.8175 4 20.93L3 19.93C2.11369 19.0435 2.11369 17.6065 3 16.72C3.07677 16.6485 3.10073 16.5367 3.06 16.44C2.8448 16.014 2.66098 15.5728 2.51 15.12C2.46873 15.0252 2.37333 14.9655 2.27 14.97C1.01859 14.9645 0.00547671 13.9514 0 12.7V11.24C0.00547671 9.98859 1.01859 8.97548 2.27 8.97C2.37333 8.97446 2.46873 8.91483 2.51 8.82C2.66134 8.36734 2.84515 7.9262 3.06 7.5C3.10073 7.40332 3.07677 7.2915 3 7.22C2.11369 6.33354 2.11369 4.89646 3 4.01L4 3.01C4.88872 2.12917 6.32128 2.12917 7.21 3.01C7.28197 3.07903 7.38808 3.09868 7.48 3.06C7.90642 2.84565 8.34753 2.66185 8.8 2.51C8.89483 2.46873 8.95446 2.37333 8.95 2.27C8.95548 1.01859 9.96859 0.00547671 11.22 0H12.67C13.9214 0.00547671 14.9345 1.01859 14.94 2.27C14.9355 2.37333 14.9952 2.46873 15.09 2.51C15.5426 2.6616 15.9837 2.8454 16.41 3.06C16.5019 3.09868 16.608 3.07903 16.68 3.01C17.5665 2.12369 19.0035 2.12369 19.89 3.01L20.89 4.01C21.7708 4.89872 21.7708 6.33128 20.89 7.22C20.8132 7.2915 20.7893 7.40332 20.83 7.5C21.0452 7.92603 21.229 8.36721 21.38 8.82C21.4213 8.91483 21.5167 8.97446 21.62 8.97C22.8714 8.97548 23.8845 9.98859 23.89 11.24V12.7C23.8845 13.9514 22.8714 14.9645 21.62 14.97C21.5167 14.9655 21.4213 15.0252 21.38 15.12L21.3 15.36C21.1978 15.7184 20.9048 15.9903 20.5397 16.0654C20.1747 16.1404 19.7981 16.0063 19.5628 15.7172C19.3275 15.4282 19.2725 15.0323 19.42 14.69L19.49 14.48C19.8007 13.5647 20.6634 12.9519 21.63 12.96C21.7791 12.96 21.9 12.8391 21.9 12.69V11.23C21.9 11.0809 21.7791 10.96 21.63 10.96C20.6634 10.9681 19.8007 10.3553 19.49 9.44C19.3695 9.07637 19.2224 8.72208 19.05 8.38C18.6219 7.51225 18.7993 6.46768 19.49 5.79C19.5407 5.73974 19.5695 5.67142 19.57 5.6C19.5695 5.52858 19.5407 5.46026 19.49 5.41L18.49 4.41C18.3848 4.30578 18.2152 4.30578 18.11 4.41C17.4323 5.10068 16.3878 5.27813 15.52 4.85C15.1775 4.67839 14.8233 4.53136 14.46 4.41C13.5447 4.09934 12.9319 3.23657 12.94 2.27C12.94 2.12088 12.8191 2 12.67 2H11.22C11.0709 2 10.95 2.12088 10.95 2.27C10.9581 3.23657 10.3453 4.09934 9.43 4.41C9.06673 4.53148 8.71251 4.67852 8.37 4.85C7.50225 5.27813 6.45768 5.10068 5.78 4.41C5.67477 4.30578 5.50523 4.30578 5.4 4.41L4.4 5.41C4.34682 5.46093 4.31675 5.53137 4.31675 5.605C4.31675 5.67863 4.34682 5.74907 4.4 5.8C5.09068 6.47768 5.26813 7.52225 4.84 8.39C4.66792 8.73224 4.52087 9.0865 4.4 9.45C4.08934 10.3653 3.22657 10.9781 2.26 10.97C2.11088 10.97 1.99 11.0909 1.99 11.24V12.7C1.99 12.8491 2.11088 12.97 2.26 12.97C3.22657 12.9619 4.08934 13.5747 4.4 14.49C4.52051 14.8536 4.66757 15.2079 4.84 15.55C5.26813 16.4177 5.09068 17.4623 4.4 18.14C4.34925 18.1903 4.32049 18.2586 4.32 18.33C4.32049 18.4014 4.34925 18.4697 4.4 18.52L5.4 19.52C5.50863 19.6254 5.68137 19.6254 5.79 19.52C6.46938 18.8247 7.51967 18.647 8.39 19.08C8.7325 19.2515 9.08672 19.3986 9.45 19.52C10.3653 19.8307 10.9781 20.6934 10.97 21.66C10.97 21.8091 11.0909 21.93 11.24 21.93H12.69C12.8391 21.93 12.96 21.8091 12.96 21.66C12.9519 20.6934 13.5647 19.8307 14.48 19.52L14.67 19.45C15.1891 19.2567 15.7667 19.5209 15.96 20.04C16.1533 20.5591 15.8891 21.1367 15.37 21.33L15.12 21.42C15.0212 21.4581 14.9572 21.5542 14.96 21.66C14.9545 22.9114 13.9414 23.9245 12.69 23.93Z" fill="#778CA2"/>
<path fill-rule="evenodd" clip-rule="evenodd" d="M21.12 21.11C21.5077 20.72 21.5077 20.09 21.12 19.7L16.28 14.7C16.0922 14.503 15.8322 14.391 15.56 14.39C15.2878 14.391 15.0278 14.503 14.84 14.7C13.8684 15.7258 12.4278 16.1629 11.05 15.85C9.00933 15.3843 7.67278 13.424 7.98467 11.3542C8.29657 9.28446 10.1514 7.80513 12.2387 7.96144C14.326 8.11775 15.9399 9.85685 15.94 11.95C15.94 12.5023 16.3877 12.95 16.94 12.95C17.4923 12.95 17.94 12.5023 17.94 11.95C17.9399 9.17202 16.0328 6.75737 13.3305 6.1136C10.6281 5.46982 7.8372 6.76528 6.58459 9.24483C5.33198 11.7244 5.94527 14.7396 8.06696 16.5328C10.1886 18.326 13.2639 18.4283 15.5 16.78L19.68 21.1C20.0701 21.4877 20.7 21.4877 21.09 21.1L21.12 21.11Z" fill="#778CA2"/>
</svg>
