<svg width="12" height="12" viewBox="0 0 12 12" fill="none" xmlns="http://www.w3.org/2000/svg">
<path fill-rule="evenodd" clip-rule="evenodd" d="M10.5 12H1.5C0.671573 12 0 11.3284 0 10.5V3C0 2.17157 0.671573 1.5 1.5 1.5C1.77614 1.5 2 1.27614 2 1V0.5C2 0.223858 2.22386 0 2.5 0C2.77614 0 3 0.223858 3 0.5V1C3 1.82843 2.32843 2.5 1.5 2.5C1.22386 2.5 1 2.72386 1 3V10.5C1 10.7761 1.22386 11 1.5 11H10.5C10.7761 11 11 10.7761 11 10.5V2C11 1.72386 11.2239 1.5 11.5 1.5C11.7761 1.5 12 1.72386 12 2V10.5C12 11.3284 11.3284 12 10.5 12Z" fill="#98A9BC"/>
<path fill-rule="evenodd" clip-rule="evenodd" d="M10 1V0.5C10 0.223858 9.77614 0 9.5 0C9.22386 0 9 0.223858 9 0.5V1C9 1.27614 8.77614 1.5 8.5 1.5H4.5C4.22386 1.5 4 1.72386 4 2C4 2.27614 4.22386 2.5 4.5 2.5H8.5C9.32843 2.5 10 1.82843 10 1Z" fill="#98A9BC"/>
<path fill-rule="evenodd" clip-rule="evenodd" d="M3 4.5C2.72386 4.5 2.5 4.72386 2.5 5C2.5 5.27614 2.72386 5.5 3 5.5C3.27614 5.5 3.5 5.27614 3.5 5C3.5 4.72386 3.27614 4.5 3 4.5Z" fill="#98A9BC"/>
<path fill-rule="evenodd" clip-rule="evenodd" d="M5 4.5C4.72386 4.5 4.5 4.72386 4.5 5C4.5 5.27614 4.72386 5.5 5 5.5C5.27614 5.5 5.5 5.27614 5.5 5C5.5 4.72386 5.27614 4.5 5 4.5Z" fill="#98A9BC"/>
<path fill-rule="evenodd" clip-rule="evenodd" d="M7 4.5C6.72386 4.5 6.5 4.72386 6.5 5C6.5 5.27614 6.72386 5.5 7 5.5C7.27614 5.5 7.5 5.27614 7.5 5C7.5 4.72386 7.27614 4.5 7 4.5Z" fill="#98A9BC"/>
<path fill-rule="evenodd" clip-rule="evenodd" d="M9 4.5C8.72386 4.5 8.5 4.72386 8.5 5C8.5 5.27614 8.72386 5.5 9 5.5C9.27614 5.5 9.5 5.27614 9.5 5C9.5 4.72386 9.27614 4.5 9 4.5Z" fill="#98A9BC"/>
<path fill-rule="evenodd" clip-rule="evenodd" d="M3 6.5C2.72386 6.5 2.5 6.72386 2.5 7C2.5 7.27614 2.72386 7.5 3 7.5C3.27614 7.5 3.5 7.27614 3.5 7C3.5 6.72386 3.27614 6.5 3 6.5Z" fill="#98A9BC"/>
<path fill-rule="evenodd" clip-rule="evenodd" d="M7 6.5C6.72386 6.5 6.5 6.72386 6.5 7C6.5 7.27614 6.72386 7.5 7 7.5C7.27614 7.5 7.5 7.27614 7.5 7C7.5 6.72386 7.27614 6.5 7 6.5Z" fill="#98A9BC"/>
<path fill-rule="evenodd" clip-rule="evenodd" d="M5 6.5C4.72386 6.5 4.5 6.72386 4.5 7C4.5 7.27614 4.72386 7.5 5 7.5C5.27614 7.5 5.5 7.27614 5.5 7C5.5 6.72386 5.27614 6.5 5 6.5Z" fill="#98A9BC"/>
<path fill-rule="evenodd" clip-rule="evenodd" d="M9 6.5C8.72386 6.5 8.5 6.72386 8.5 7C8.5 7.27614 8.72386 7.5 9 7.5C9.27614 7.5 9.5 7.27614 9.5 7C9.5 6.72386 9.27614 6.5 9 6.5Z" fill="#98A9BC"/>
<path fill-rule="evenodd" clip-rule="evenodd" d="M3 8.5C2.72386 8.5 2.5 8.72386 2.5 9C2.5 9.27614 2.72386 9.5 3 9.5C3.27614 9.5 3.5 9.27614 3.5 9C3.5 8.72386 3.27614 8.5 3 8.5Z" fill="#98A9BC"/>
<path fill-rule="evenodd" clip-rule="evenodd" d="M5 8.5C4.72386 8.5 4.5 8.72386 4.5 9C4.5 9.27614 4.72386 9.5 5 9.5C5.27614 9.5 5.5 9.27614 5.5 9C5.5 8.72386 5.27614 8.5 5 8.5Z" fill="#98A9BC"/>
<path fill-rule="evenodd" clip-rule="evenodd" d="M7 8.5C6.72386 8.5 6.5 8.72386 6.5 9C6.5 9.27614 6.72386 9.5 7 9.5C7.27614 9.5 7.5 9.27614 7.5 9C7.5 8.72386 7.27614 8.5 7 8.5Z" fill="#98A9BC"/>
</svg>
