<svg width="12" height="12" viewBox="0 0 12 12" fill="none" xmlns="http://www.w3.org/2000/svg">
<path fill-rule="evenodd" clip-rule="evenodd" d="M9.36813 10.965C9.59732 10.8104 9.65776 10.4992 9.50313 10.27C9.34849 10.0409 9.03734 9.98042 8.80815 10.1351C6.66438 11.5972 3.76202 11.2006 2.08913 9.21685C0.416253 7.23315 0.515183 4.30546 2.31816 2.43921C4.12114 0.572962 7.04365 0.373166 9.08383 1.97668C11.124 3.58019 11.6205 6.46718 10.2331 8.66009C10.1375 8.81103 10.1298 9.00149 10.2127 9.15972C10.2956 9.31796 10.4567 9.41992 10.6352 9.42722C10.8137 9.43451 10.9825 9.34602 11.0781 9.19508C12.7152 6.59312 12.1208 3.17472 9.70149 1.27809C7.28218 -0.618547 3.82075 -0.379748 1.68481 1.83115C-0.451122 4.04204 -0.570453 7.50967 1.40844 9.86217C3.38734 12.2147 6.82417 12.6909 9.36813 10.965ZM5.30825 5.76017C5.17535 5.76093 5.04762 5.70876 4.95326 5.61517L3.8933 4.5552C3.72341 4.35682 3.73484 4.06111 3.91951 3.87643C4.10419 3.69175 4.3999 3.68033 4.59827 3.85022L5.65824 4.91019C5.80246 5.05323 5.84581 5.26931 5.76792 5.45691C5.69003 5.64452 5.50638 5.76635 5.30325 5.76517L5.30825 5.76017ZM4.59827 8.11011L5.65823 7.05014C5.82811 6.85177 5.81669 6.55606 5.63201 6.37138C5.44734 6.1867 5.15163 6.17528 4.95325 6.34516L3.89329 7.40513C3.7506 7.52732 3.68845 7.71918 3.73239 7.90183C3.77632 8.08447 3.91893 8.22708 4.10157 8.27101C4.28422 8.31495 4.47607 8.2528 4.59827 8.11011ZM8.13313 8.11011C8.32698 7.91509 8.32698 7.60014 8.13313 7.40512L7.07316 6.34515C6.95097 6.20247 6.75911 6.14032 6.57647 6.18425C6.39382 6.22819 6.25122 6.37079 6.20728 6.55344C6.16335 6.73608 6.2255 6.92794 6.36818 7.05013L7.42815 8.11011C7.62316 8.30396 7.93811 8.30396 8.13313 8.11011ZM7.07316 5.63517L8.13313 4.5752C8.30301 4.37683 8.29159 4.08112 8.10691 3.89644C7.92223 3.71176 7.62652 3.70034 7.42815 3.87022L6.36818 4.93019C6.2255 5.05238 6.16335 5.24424 6.20728 5.42689C6.25122 5.60953 6.39382 5.75214 6.57647 5.79607C6.75911 5.84001 6.95097 5.77786 7.07316 5.63517Z" fill="#98A9BC"/>
</svg>
