<svg width="12" height="12" viewBox="0 0 12 12" fill="none" xmlns="http://www.w3.org/2000/svg">
<path fill-rule="evenodd" clip-rule="evenodd" d="M1 11.8267C0.723858 11.8267 0.5 11.6028 0.5 11.3267L0.54 9.65165C0.54 9.37551 0.763858 9.15165 1.04 9.15165C1.31614 9.15165 1.54 9.37551 1.54 9.65165V10.2517L3.075 9.01165L1.535 8.19665C1.04822 7.93796 0.86259 7.33412 1.12 6.84665L4.16 1.10165C4.48539 0.45443 5.13533 0.0337538 5.85904 0.00193709C6.58276 -0.0298796 7.26711 0.332137 7.64804 0.948309C8.02897 1.56448 8.04694 2.33847 7.695 2.97165L5.355 7.39165C5.27104 7.54974 5.10912 7.65103 4.93023 7.65737C4.75135 7.66371 4.58266 7.57412 4.48773 7.42237C4.3928 7.27062 4.38604 7.07974 4.47 6.92165L6.81 2.50165C7.06819 2.01288 6.88127 1.40735 6.3925 1.14915C5.90373 0.89096 5.29819 1.07788 5.04 1.56665L1.99 7.32665L3.53 8.14165C3.82624 8.29916 4.02375 8.59472 4.05594 8.92867C4.08813 9.26263 3.9507 9.59047 3.69 9.80165L1.315 11.7167C1.22569 11.7883 1.1145 11.8271 1 11.8267Z" fill="#778CA2"/>
<path fill-rule="evenodd" clip-rule="evenodd" d="M11.915 11.3262C11.915 11.05 11.6912 10.8262 11.415 10.8262H3.91504C3.6389 10.8262 3.41504 11.05 3.41504 11.3262C3.41504 11.6023 3.6389 11.8262 3.91504 11.8262H11.415C11.6912 11.8262 11.915 11.6023 11.915 11.3262Z" fill="#778CA2"/>
</svg>
