<svg width="280" height="59" viewBox="0 0 280 59" fill="none" xmlns="http://www.w3.org/2000/svg">
<path d="M53.239 21.0861C52.9656 17.1711 51.3254 13.943 48.455 11.4703C46.4047 9.7532 44.0127 8.58556 41.2106 7.83003C39.7071 7.48661 38.1352 7.21187 36.4267 7.14319C36.0849 7.07451 35.6749 7.07451 35.2648 7.07451C31.506 7.07451 28.1572 7.00582 25.1501 6.86845C24.535 6.86845 23.9199 6.79977 23.3049 6.79977C5.39907 5.15134 1.16183 1.64843 0.273371 0.412107C0.0683427 0.206054 0 0.0686845 0 0C0 0.0686845 0 0.137369 0.0683427 0.274738C0.136685 0.618161 0.273371 1.09895 0.478399 1.71711C1.50354 4.8766 5.05736 11.1956 16.6073 13.5309C17.359 13.6682 20.5711 14.3551 24.33 14.7672C27.2004 15.1106 30.1391 15.3853 33.0779 15.7288C33.9663 15.8661 34.8548 16.0035 35.8116 16.1409C36.9051 16.3469 37.9985 16.8964 38.887 17.6519C40.1172 18.6822 40.5956 20.1246 40.6639 21.6356C40.6639 22.1851 41.1423 22.5285 41.6207 22.5285H52.4188C52.9656 22.5285 53.3756 22.0477 53.3756 21.4983C53.239 21.4296 53.239 21.1548 53.239 21.0861Z" fill="#009F3C"/>
<path d="M26.3119 19.4377C25.9702 19.3003 23.6466 18.8195 22.9631 18.7509C15.7872 17.5145 10.5248 15.3166 6.62925 12.7066C6.62925 12.7066 6.56091 12.6379 6.49256 12.6379C5.2624 11.8824 4.784 11.4016 4.784 11.4016C4.784 11.4016 5.60411 17.0337 11.4816 22.1851C11.96 22.5972 12.5067 23.078 13.0535 23.4901C13.6685 23.9709 14.352 24.4517 15.1037 24.8638C20.5028 28.1606 29.5924 28.7788 35.5382 30.1525C39.1604 30.9767 41.7574 32.007 43.3293 32.7625C44.081 33.1059 44.6278 33.3807 44.9011 33.5867C45.0378 33.6554 45.1062 33.7241 45.1062 33.7241C45.0378 33.6554 44.8328 33.312 44.3544 32.6938C43.3293 31.5262 42.3041 30.2899 40.9373 29.4656C40.4589 29.1222 39.9121 28.9162 39.4337 28.6414C38.887 28.3667 38.3403 28.1606 37.7935 27.9546C37.2468 27.7485 36.6317 27.5425 36.0849 27.4051C35.6749 27.2677 35.2648 27.1991 34.8548 27.0617C34.6497 26.993 34.4447 26.993 34.2397 26.9243C32.1211 26.4435 30.0024 25.894 28.4306 24.8638C25.3551 22.5285 28.3622 20.5367 26.3119 19.4377Z" fill="#009F3C"/>
<path d="M48.5233 40.1803C48.3866 39.8369 48.1816 39.5622 48.0449 39.2874C47.7032 38.8067 47.3615 38.3259 46.9514 37.8451C46.5413 37.433 46.1313 37.0209 45.7212 36.6088C45.3112 36.2653 44.8328 35.9219 44.3544 35.5785C43.876 35.3037 43.3292 34.9603 42.8508 34.7543C42.3041 34.4795 41.7574 34.2735 41.2106 34.0674C40.6639 33.8614 40.0488 33.6553 39.4337 33.5179C38.8186 33.3806 38.2035 33.1745 37.5885 33.1058C36.9734 32.9685 36.3583 32.8311 35.6749 32.7624C35.0598 32.6251 34.3764 32.5564 33.7613 32.4877C33.1462 32.419 32.4628 32.2816 31.8477 32.2129C31.2326 32.1443 30.5492 32.0756 29.9341 32.0069C29.319 31.9382 28.6356 31.8695 28.0205 31.8008C27.4054 31.7322 26.7903 31.6635 26.1752 31.5261C25.5601 31.4574 24.9451 31.32 24.33 31.1827C24.125 31.114 23.8516 31.114 23.6466 31.0453C19.6143 30.1524 16.7439 29.1221 14.8987 28.2979C13.2585 27.6111 12.4384 27.0616 12.3017 26.9929C12.37 27.1303 14.762 32.2129 20.4344 35.5785C21.8696 36.4027 23.5099 36.9522 25.0817 37.3643C26.7903 37.7764 28.5672 38.1198 30.2758 38.4632C30.8225 38.5319 31.3693 38.6693 31.916 38.8067C32.5311 38.944 33.1462 39.0127 33.6929 39.2874C35.2648 40.1803 36.4266 41.7601 36.2899 43.6146C36.2899 43.8206 36.2216 44.0267 36.2216 44.2327C35.8799 45.8125 34.9914 47.1175 33.5562 48.0104C32.121 48.9033 30.3441 49.3841 28.1572 49.3841C25.2184 49.3841 23.1682 48.6972 21.938 47.3922C20.8445 46.2246 20.2978 44.6448 20.2978 42.5156C20.2978 41.9661 19.8877 41.554 19.341 41.554H8.40614C7.8594 41.554 7.44934 42.0348 7.44934 42.5843C7.51768 47.1175 9.29459 50.8951 12.7117 53.7799C14.4886 55.2909 16.6756 56.4586 19.2043 57.2828C21.733 58.107 24.4667 58.5191 27.4054 58.5878C31.4376 58.6565 35.0598 58.0383 38.3402 56.8707C41.5523 55.7031 44.081 53.9859 45.9263 51.788C47.2931 50.1396 48.1816 48.3538 48.66 46.2933C48.7966 45.6064 48.9333 44.9196 48.9333 44.1641C48.9333 43.6833 49.0017 43.2025 48.9333 42.7217C48.9333 42.3096 48.865 41.8288 48.7967 41.348C48.7967 41.0046 48.66 40.5925 48.5233 40.1803Z" fill="#009F3C"/>
<path d="M65.1306 50.277C64.9256 50.0023 64.7889 49.7276 64.7205 49.5215L62.3969 41.8288L59.1165 57.2829C59.0481 57.6263 58.8431 57.901 58.5697 58.1758C58.2963 58.4505 57.9546 58.5192 57.6129 58.5192H51.5304C51.1887 58.5192 50.9153 58.3818 50.7103 58.1758C50.5053 57.901 50.4369 57.6263 50.5053 57.2829L56.9295 27.1304C56.9978 26.7869 57.2029 26.5122 57.4762 26.2375C57.7496 25.9627 58.0913 25.894 58.433 25.894H64.0371C64.3788 25.894 64.5839 25.9627 64.8572 26.0314C65.0623 26.1001 65.2673 26.2375 65.404 26.3748C65.5407 26.5122 65.6773 26.6496 65.6773 26.7869C65.7457 26.9243 65.814 27.0617 65.814 27.1304L69.8462 40.043L79.2092 27.1304C79.3459 26.993 79.5509 26.7183 79.961 26.3748C80.3027 26.0314 80.8494 25.894 81.4645 25.894H88.3671C88.7088 25.894 88.9822 26.0314 89.1872 26.2375C89.3923 26.5122 89.4606 26.7869 89.3923 27.1304L82.968 57.2829C82.8997 57.6263 82.6947 57.901 82.4213 58.1758C82.1479 58.4505 81.8062 58.5192 81.4645 58.5192H75.382C75.0403 58.5192 74.7669 58.3818 74.5619 58.1758C74.3569 57.901 74.2885 57.6263 74.3569 57.2829L77.6373 41.8288L72.2382 49.5215C72.0332 49.7962 71.7598 50.071 71.4181 50.3457C71.0764 50.6205 70.6664 50.6892 70.2563 50.6892H66.2241C65.7457 50.6892 65.404 50.5518 65.1306 50.277Z" fill="#009F3C"/>
<path d="M113.586 25.8254C114.201 25.8254 114.611 26.0315 114.884 26.3062C115.157 26.6497 115.294 26.9931 115.362 27.3365L119.258 56.8022C119.395 57.9698 119.053 58.5193 118.096 58.5193H112.492C111.877 58.5193 111.467 58.3819 111.262 58.1072C111.057 57.8324 110.92 57.5577 110.92 57.3516L110.442 53.5053H98.0718L95.9532 57.3516C95.8165 57.6264 95.6114 57.8324 95.2697 58.1072C94.928 58.3819 94.518 58.5193 93.9029 58.5193H87.4103C87.0003 58.5193 86.7269 58.3819 86.5902 58.0385C86.5219 57.6951 86.5902 57.283 86.8636 56.8022L103.197 27.3365C103.403 26.9931 103.676 26.6497 104.086 26.3062C104.496 25.9628 104.974 25.8254 105.589 25.8254H113.586ZM101.967 46.2934H109.485L108.118 35.0979L101.967 46.2934Z" fill="#009F3C"/>
<path d="M143.11 25.8254C144.887 25.8254 146.595 26.1002 148.099 26.581C149.671 27.0618 150.969 27.7486 151.994 28.7102C153.019 29.6718 153.771 30.8394 154.249 32.2131C154.728 33.5868 154.728 35.2352 154.386 37.021C153.908 39.3563 153.019 41.2108 151.721 42.5845C150.422 43.9582 148.85 45.0571 146.868 45.8813L150.286 57.0082C150.286 57.1456 150.286 57.3516 150.286 57.489C150.217 57.7638 150.081 58.0385 149.876 58.2445C149.671 58.4506 149.397 58.5193 149.124 58.5193H143.246C142.631 58.5193 142.221 58.3819 142.016 58.1072C141.811 57.8324 141.674 57.5577 141.538 57.283L138.531 47.255H133.815L131.696 57.283C131.628 57.6264 131.423 57.9011 131.15 58.1759C130.876 58.4506 130.535 58.5193 130.193 58.5193H124.11C123.769 58.5193 123.495 58.3819 123.29 58.1759C123.085 57.9011 123.017 57.6264 123.085 57.283L129.509 27.1304C129.578 26.787 129.783 26.5123 130.056 26.2375C130.33 25.9628 130.671 25.8941 131.013 25.8941H143.11V25.8254ZM135.319 39.9745H140.581C141.879 39.9745 143.041 39.6997 143.998 39.2189C144.955 38.7381 145.57 37.8452 145.843 36.5402C146.117 35.2352 145.843 34.3423 145.092 33.8615C144.34 33.3807 143.315 33.106 142.016 33.106H136.754L135.319 39.9745Z" fill="#009F3C"/>
<path d="M185.345 25.8254C185.687 25.8254 185.96 25.9628 186.165 26.1689C186.37 26.4436 186.439 26.7183 186.371 27.0618L185.277 32.007C185.209 32.3505 185.004 32.6252 184.73 32.8999C184.389 33.1747 184.115 33.2434 183.773 33.2434H175.572L170.515 57.2143C170.447 57.5577 170.242 57.8324 169.968 58.1072C169.695 58.3819 169.353 58.4506 169.011 58.4506H162.929C162.587 58.4506 162.314 58.3132 162.109 58.1072C161.904 57.8324 161.835 57.5577 161.904 57.2143L166.961 33.2434H158.76C158.418 33.2434 158.145 33.106 157.94 32.8999C157.735 32.6252 157.667 32.3505 157.735 32.007L158.828 27.0618C158.897 26.7183 159.102 26.4436 159.375 26.1689C159.649 25.8941 159.99 25.8254 160.332 25.8254H185.345Z" fill="#009F3C"/>
<path d="M204.823 25.8254C206.532 25.8254 208.172 26.1002 209.675 26.581C211.179 27.0618 212.477 27.8173 213.503 28.7789C214.528 29.7405 215.279 30.9768 215.69 32.3505C216.1 33.7928 216.168 35.3726 215.758 37.1584C215.348 39.0129 214.801 40.5926 214.049 41.8976C213.298 43.2026 212.341 44.3016 211.179 45.1945C210.017 46.0874 208.582 46.7055 206.942 47.1176C205.301 47.5298 203.32 47.7358 201.133 47.7358H194.708L192.658 57.283C192.59 57.6264 192.385 57.9011 192.111 58.1759C191.838 58.4506 191.496 58.5193 191.155 58.5193H185.072C184.73 58.5193 184.457 58.3819 184.252 58.1759C184.047 57.9011 183.979 57.6264 184.047 57.283L190.471 27.1304C190.539 26.787 190.744 26.5123 191.018 26.2375C191.291 25.9628 191.633 25.8941 191.975 25.8941H204.823V25.8254ZM196.28 40.4552H202.021C203.32 40.4552 204.481 40.1805 205.438 39.5623C206.395 39.0129 207.01 38.0513 207.352 36.7463C207.625 35.4413 207.352 34.4797 206.6 33.9302C205.848 33.3807 204.823 33.0373 203.525 33.0373H197.784L196.28 40.4552Z" fill="#009F3C"/>
<path d="M219.038 38.0512C219.517 36.3341 220.132 34.6857 221.02 33.106C221.84 31.5949 223.002 30.2212 224.301 29.0536C225.668 27.8859 227.239 26.993 229.153 26.3749C230.998 25.688 233.254 25.3446 235.714 25.3446C237.764 25.3446 239.609 25.688 241.25 26.3749C242.89 27.0617 244.257 27.9546 245.35 29.0536C246.444 30.2212 247.264 31.5262 247.742 33.106C248.221 34.617 248.357 36.2654 248.016 38.0512C247.811 39.4249 247.537 40.7986 247.196 42.241C246.854 43.6834 246.58 45.0571 246.239 46.3621C245.76 48.0792 245.077 49.7276 244.257 51.3073C243.368 52.8184 242.275 54.1921 240.908 55.3597C239.541 56.5274 237.969 57.4203 236.056 58.0384C234.21 58.7253 231.955 59 229.495 59C227.444 59 225.599 58.6566 223.959 58.0384C222.319 57.3516 220.952 56.4587 219.858 55.3597C218.765 54.1921 218.013 52.8871 217.535 51.3073C217.056 49.7963 216.92 48.1479 217.261 46.3621C217.466 45.0571 217.671 43.6834 218.013 42.241C218.355 40.7986 218.697 39.3562 219.038 38.0512ZM237.764 46.156C237.901 45.6065 238.106 44.9884 238.243 44.3015C238.379 43.6147 238.584 42.9278 238.721 42.1723C238.858 41.4855 238.994 40.7299 239.131 40.1118C239.268 39.4249 239.336 38.8755 239.404 38.326C239.473 37.5704 239.473 36.8149 239.336 36.1968C239.199 35.5099 238.926 34.9604 238.584 34.4796C238.174 33.9989 237.696 33.5867 237.012 33.312C236.329 33.0373 235.577 32.8999 234.62 32.8999C233.664 32.8999 232.775 33.0373 232.023 33.312C231.272 33.5867 230.588 33.9989 229.973 34.4796C229.358 34.9604 228.88 35.5099 228.47 36.1968C228.06 36.8836 227.786 37.5704 227.513 38.326C227.376 38.8755 227.171 39.4249 227.034 40.1118C226.829 40.7986 226.693 41.4855 226.556 42.1723C226.419 42.8592 226.283 43.6147 226.146 44.3015C226.009 44.9884 225.941 45.6065 225.873 46.156C225.668 47.7358 225.941 48.9721 226.693 50.0023C227.376 51.0326 228.743 51.5134 230.657 51.5134C232.639 51.5134 234.142 51.0326 235.304 50.0023C236.466 48.9721 237.286 47.6671 237.764 46.156Z" fill="#009F3C"/>
<path d="M267.767 25.413C269.612 25.413 271.321 25.6877 272.824 26.3059C274.328 26.8553 275.694 27.6109 276.72 28.5038C277.813 29.3967 278.633 30.4269 279.18 31.4572C279.727 32.5562 280 33.5864 279.932 34.6167C279.863 34.8914 279.727 35.1662 279.453 35.3722C279.18 35.5783 278.975 35.647 278.701 35.647H272.687C272.277 35.647 271.936 35.5783 271.662 35.4409C271.457 35.3035 271.184 35.0975 270.91 34.8914C270.842 34.8227 270.705 34.6167 270.569 34.4106C270.432 34.2046 270.159 33.9985 269.885 33.7238C269.544 33.5177 269.134 33.3117 268.655 33.1056C268.108 32.9683 267.493 32.8309 266.673 32.8309C266.058 32.8309 265.511 32.8996 264.965 32.9683C264.418 33.0369 263.871 33.1743 263.461 33.3117C262.983 33.5177 262.641 33.7238 262.299 34.0672C261.958 34.4106 261.821 34.7541 261.684 35.2348C261.547 35.7156 261.684 36.1277 261.889 36.4025C262.094 36.7459 262.504 37.0206 263.188 37.2954C263.871 37.5701 264.691 37.8449 265.785 38.1196C266.878 38.3943 268.245 38.6691 269.885 39.0125C273.166 39.6993 275.421 40.867 276.788 42.4467C278.155 44.0265 278.496 46.293 277.881 49.2465C277.198 52.406 275.489 54.8099 272.824 56.4584C270.159 58.1068 266.468 58.931 261.821 58.931C259.976 58.931 258.199 58.6563 256.627 58.1068C255.055 57.5573 253.688 56.8018 252.526 55.9089C251.364 55.016 250.476 53.9857 249.861 52.8181C249.246 51.6504 248.972 50.4828 249.041 49.3152C249.109 49.0404 249.246 48.7657 249.519 48.5596C249.793 48.3536 249.998 48.2849 250.271 48.2849H256.353C256.764 48.2849 257.105 48.3536 257.379 48.4223C257.584 48.5596 257.789 48.697 257.994 48.9031C258.13 49.0404 258.267 49.2465 258.404 49.5212C258.54 49.796 258.814 50.0707 259.224 50.4141C259.634 50.7575 260.044 50.9636 260.659 51.1696C261.274 51.3757 262.026 51.5131 262.914 51.5131C264.555 51.5131 265.99 51.307 267.152 50.9636C268.313 50.6202 268.997 49.9333 269.27 49.0404C269.339 48.5596 269.27 48.1475 268.928 47.8728C268.587 47.5294 268.04 47.2546 267.288 46.9799C266.537 46.7052 265.511 46.4304 264.35 46.1557C263.188 45.8809 261.753 45.6062 260.112 45.1941C257.105 44.5073 254.987 43.3396 253.825 41.6225C252.663 39.9054 252.39 37.7075 253.005 35.0288C253.278 33.7238 253.756 32.4188 254.508 31.2511C255.26 30.0835 256.217 29.0532 257.447 28.1603C258.677 27.2674 260.112 26.5806 261.821 26.0998C263.529 25.619 265.511 25.413 267.767 25.413Z" fill="#009F3C"/>
</svg>
