<svg width="12" height="12" viewBox="0 0 12 12" fill="none" xmlns="http://www.w3.org/2000/svg">
<path fill-rule="evenodd" clip-rule="evenodd" d="M10.9067 11.9825C10.7377 11.9823 10.5771 11.91 10.4656 11.7841L8.19523 9.23387C6.79437 10.1095 5.04833 10.243 3.5288 9.59067C2.00928 8.93837 0.91194 7.58425 0.596093 5.97171C0.181197 3.89062 1.13474 1.77624 2.97515 0.696414C4.81556 -0.383415 7.14235 -0.193724 8.78043 1.16969C10.4185 2.5331 11.0114 4.77355 10.2597 6.75953C10.1444 7.06088 9.80468 7.21242 9.50096 7.098C9.19724 6.98359 9.04451 6.64654 9.15982 6.3452C9.60048 5.18208 9.4457 3.8792 8.74455 2.84962C8.04341 1.82003 6.88285 1.19143 5.63081 1.16308C4.46319 1.12748 3.34396 1.62677 2.59587 2.51697C1.37887 3.96061 1.3979 6.06722 2.64078 7.48899C3.88366 8.91076 5.98285 9.22725 7.5953 8.23597C8.08579 7.94985 8.71236 8.05305 9.08336 8.48107L11.3537 11.0313C11.5061 11.2034 11.5429 11.448 11.4478 11.6567C11.3528 11.8654 11.1434 11.9997 10.9126 12L10.9067 11.9825Z" fill="#98A9BC"/>
</svg>
